<svg xmlns="http://www.w3.org/2000/svg" xmlns:xlink="http://www.w3.org/1999/xlink" version="1.1" width="512px" height="512px" style="shape-rendering:geometricPrecision; text-rendering:geometricPrecision; image-rendering:optimizeQuality; fill-rule:evenodd; clip-rule:evenodd">
<g><path style="opacity:0.984" fill="#020202" d="M 304.5,43.5 C 302.46,47.1053 299.294,48.772 295,48.5C 237.697,32.8242 190.697,48.1575 154,94.5C 129.783,132.027 125.783,171.693 142,213.5C 147.456,225.755 154.622,236.755 163.5,246.5C 198.948,283.584 241.615,295.418 291.5,282C 345.965,261.173 374.631,221.506 377.5,163C 376.336,127.515 362.669,98.0152 336.5,74.5C 331.861,70.0322 327.028,65.6989 322,61.5C 321.366,58.4453 321.532,55.4453 322.5,52.5C 325.509,49.7733 328.843,49.2733 332.5,51C 338.2,54.8543 343.533,59.1876 348.5,64C 396.167,64.3333 443.833,64.6667 491.5,65C 501.35,68.3514 508.017,74.8514 511.5,84.5C 511.5,186.5 511.5,288.5 511.5,390.5C 507.833,400.993 500.5,407.493 489.5,410C 432.501,410.5 375.501,410.667 318.5,410.5C 318.5,429.833 318.5,449.167 318.5,468.5C 327.173,468.334 335.84,468.5 344.5,469C 350.411,475.445 349.411,480.445 341.5,484C 283.5,484.667 225.5,484.667 167.5,484C 159.579,480.395 158.579,475.395 164.5,469C 173.16,468.5 181.827,468.334 190.5,468.5C 190.5,449.167 190.5,429.833 190.5,410.5C 134.166,410.667 77.8323,410.5 21.5,410C 10.4999,407.493 3.16655,400.993 -0.5,390.5C -0.5,288.5 -0.5,186.5 -0.5,84.5C 2.98314,74.8514 9.64981,68.3514 19.5,65C 53.1667,64.3333 86.8333,64.3333 120.5,65C 122.734,66.6379 124.067,68.8045 124.5,71.5C 124.076,75.146 122.076,77.646 118.5,79C 86.8333,79.3333 55.1667,79.6667 23.5,80C 19.3333,81.5 16.5,84.3333 15,88.5C 14.5,168.499 14.3333,248.499 14.5,328.5C 143.834,328.333 273.167,328.5 402.5,329C 405.222,330.272 406.556,332.439 406.5,335.5C 406.673,339.17 405.007,341.67 401.5,343C 272.5,343.5 143.5,343.667 14.5,343.5C 14.5,348.167 14.5,352.833 14.5,357.5C 14.3335,367.172 14.5002,376.839 15,386.5C 16.6271,391.062 19.7938,393.895 24.5,395C 178.5,395.667 332.5,395.667 486.5,395C 491.245,393.885 494.412,391.052 496,386.5C 496.5,372.171 496.667,357.837 496.5,343.5C 483.5,343.5 470.5,343.5 457.5,343.5C 449.826,343.666 442.159,343.5 434.5,343C 431.758,341.114 430.091,338.614 429.5,335.5C 429.933,332.805 431.266,330.638 433.5,329C 454.671,328.832 475.671,328.332 496.5,327.5C 496.667,247.833 496.5,168.166 496,88.5C 494.5,84.3333 491.667,81.5 487.5,80C 477.839,79.5002 468.172,79.3335 458.5,79.5C 426.498,79.3334 394.498,79.5 362.5,80C 390.182,116.427 398.349,156.927 387,201.5C 368.837,258.333 330.337,291.5 271.5,301C 208.337,305.84 161.504,280.674 131,225.5C 106.909,169.324 114.409,117.991 153.5,71.5C 180.812,42.3205 214.645,27.3205 255,26.5C 270.644,26.9124 285.81,29.7457 300.5,35C 303.078,37.2276 304.411,40.0609 304.5,43.5 Z"/></g>
<g><path style="opacity:1" fill="#85efa5" d="M 304.5,43.5 C 310.182,47.0078 316.182,50.0078 322.5,52.5C 321.532,55.4453 321.366,58.4453 322,61.5C 327.028,65.6989 331.861,70.0322 336.5,74.5C 353.603,114.124 352.103,153.124 332,191.5C 325.651,202.186 318.151,212.02 309.5,221C 308.906,221.464 308.239,221.631 307.5,221.5C 306.327,219.496 304.66,217.996 302.5,217C 275.502,216.5 248.502,216.333 221.5,216.5C 221.113,211.126 220.446,205.793 219.5,200.5C 247.835,200.667 276.169,200.5 304.5,200C 305.833,199.333 307.167,198.667 308.5,198C 312.042,183.291 315.209,168.458 318,153.5C 320.435,141.898 322.101,130.231 323,118.5C 322.065,115.898 320.232,114.398 317.5,114C 279.168,113.5 240.835,113.333 202.5,113.5C 201.227,94.6741 191.227,87.1741 172.5,91C 167.188,95.5724 167.188,100.239 172.5,105C 177.086,105.197 181.586,105.697 186,106.5C 194.049,146.414 201.716,186.414 209,226.5C 211.561,230.75 215.394,232.583 220.5,232C 215.548,241.154 217.548,248.487 226.5,254C 239.479,255.354 245.645,249.521 245,236.5C 244.365,235.034 243.531,233.7 242.5,232.5C 252.483,231.334 262.483,231.168 272.5,232C 271.299,232.903 270.465,234.069 270,235.5C 269.393,239.537 269.56,243.537 270.5,247.5C 234.665,262.319 198.998,261.986 163.5,246.5C 154.622,236.755 147.456,225.755 142,213.5C 125.783,171.693 129.783,132.027 154,94.5C 190.697,48.1575 237.697,32.8242 295,48.5C 299.294,48.772 302.46,47.1053 304.5,43.5 Z"/></g>
<g><path style="opacity:1" fill="#60a0f7" d="M 124.5,71.5 C 134.167,71.5 143.833,71.5 153.5,71.5C 114.409,117.991 106.909,169.324 131,225.5C 161.504,280.674 208.337,305.84 271.5,301C 330.337,291.5 368.837,258.333 387,201.5C 398.349,156.927 390.182,116.427 362.5,80C 394.498,79.5 426.498,79.3334 458.5,79.5C 458.5,97.5 458.5,115.5 458.5,133.5C 456.5,133.5 454.5,133.5 452.5,133.5C 452.824,126.646 452.491,119.979 451.5,113.5C 450.578,109.917 448.244,108.25 444.5,108.5C 440.756,108.25 438.422,109.917 437.5,113.5C 436.509,119.979 436.176,126.646 436.5,133.5C 429.646,133.176 422.979,133.509 416.5,134.5C 408.855,138.594 408.522,143.428 415.5,149C 422.492,149.5 429.492,149.666 436.5,149.5C 436.334,156.175 436.5,162.842 437,169.5C 438.747,173.934 441.914,175.768 446.5,175C 449.079,173.924 450.746,172.091 451.5,169.5C 452.491,163.021 452.824,156.354 452.5,149.5C 454.5,149.5 456.5,149.5 458.5,149.5C 458.5,208.833 458.5,268.167 458.5,327.5C 471.167,327.5 483.833,327.5 496.5,327.5C 475.671,328.332 454.671,328.832 433.5,329C 431.266,330.638 429.933,332.805 429.5,335.5C 421.833,335.5 414.167,335.5 406.5,335.5C 406.556,332.439 405.222,330.272 402.5,329C 273.167,328.5 143.834,328.333 14.5,328.5C 14.3333,248.499 14.5,168.499 15,88.5C 16.5,84.3333 19.3333,81.5 23.5,80C 55.1667,79.6667 86.8333,79.3333 118.5,79C 122.076,77.646 124.076,75.146 124.5,71.5 Z"/></g>
<g><path style="opacity:1" fill="#77ce8e" d="M 336.5,74.5 C 362.669,98.0152 376.336,127.515 377.5,163C 374.631,221.506 345.965,261.173 291.5,282C 241.615,295.418 198.948,283.584 163.5,246.5C 198.998,261.986 234.665,262.319 270.5,247.5C 276.075,254.915 283.075,256.415 291.5,252C 296.152,247.464 297.652,241.964 296,235.5C 295.535,234.069 294.701,232.903 293.5,232C 298.743,232.436 303.243,230.936 307,227.5C 307.495,225.527 307.662,223.527 307.5,221.5C 308.239,221.631 308.906,221.464 309.5,221C 318.151,212.02 325.651,202.186 332,191.5C 352.103,153.124 353.603,114.124 336.5,74.5 Z"/></g>
<g><path style="opacity:1" fill="#4a81f5" d="M 458.5,79.5 C 468.172,79.3335 477.839,79.5002 487.5,80C 491.667,81.5 494.5,84.3333 496,88.5C 496.5,168.166 496.667,247.833 496.5,327.5C 483.833,327.5 471.167,327.5 458.5,327.5C 458.5,268.167 458.5,208.833 458.5,149.5C 463.363,149.819 468.03,149.486 472.5,148.5C 480.486,143.874 480.486,139.208 472.5,134.5C 468.03,133.514 463.363,133.181 458.5,133.5C 458.5,115.5 458.5,97.5 458.5,79.5 Z"/></g>
<g><path style="opacity:1" fill="#020302" d="M 307.5,221.5 C 307.662,223.527 307.495,225.527 307,227.5C 303.243,230.936 298.743,232.436 293.5,232C 294.701,232.903 295.535,234.069 296,235.5C 297.652,241.964 296.152,247.464 291.5,252C 283.075,256.415 276.075,254.915 270.5,247.5C 269.56,243.537 269.393,239.537 270,235.5C 270.465,234.069 271.299,232.903 272.5,232C 262.483,231.168 252.483,231.334 242.5,232.5C 243.531,233.7 244.365,235.034 245,236.5C 245.645,249.521 239.479,255.354 226.5,254C 217.548,248.487 215.548,241.154 220.5,232C 215.394,232.583 211.561,230.75 209,226.5C 201.716,186.414 194.049,146.414 186,106.5C 181.586,105.697 177.086,105.197 172.5,105C 167.188,100.239 167.188,95.5724 172.5,91C 191.227,87.1741 201.227,94.6741 202.5,113.5C 240.835,113.333 279.168,113.5 317.5,114C 320.232,114.398 322.065,115.898 323,118.5C 322.101,130.231 320.435,141.898 318,153.5C 315.209,168.458 312.042,183.291 308.5,198C 307.167,198.667 305.833,199.333 304.5,200C 276.169,200.5 247.835,200.667 219.5,200.5C 220.446,205.793 221.113,211.126 221.5,216.5C 248.502,216.333 275.502,216.5 302.5,217C 304.66,217.996 306.327,219.496 307.5,221.5 Z"/></g>
<g><path style="opacity:1" fill="#020305" d="M 451.5,113.5 C 451.5,120.5 451.5,127.5 451.5,134.5C 458.5,134.5 465.5,134.5 472.5,134.5C 480.486,139.208 480.486,143.874 472.5,148.5C 465.5,148.5 458.5,148.5 451.5,148.5C 451.5,155.5 451.5,162.5 451.5,169.5C 450.746,172.091 449.079,173.924 446.5,175C 441.914,175.768 438.747,173.934 437,169.5C 436.5,162.842 436.334,156.175 436.5,149.5C 429.492,149.666 422.492,149.5 415.5,149C 408.522,143.428 408.855,138.594 416.5,134.5C 423.5,134.5 430.5,134.5 437.5,134.5C 437.5,127.5 437.5,120.5 437.5,113.5C 438.422,109.917 440.756,108.25 444.5,108.5C 448.244,108.25 450.578,109.917 451.5,113.5 Z"/></g>
<g><path style="opacity:1" fill="#385d97" d="M 451.5,113.5 C 452.491,119.979 452.824,126.646 452.5,133.5C 454.5,133.5 456.5,133.5 458.5,133.5C 463.363,133.181 468.03,133.514 472.5,134.5C 465.5,134.5 458.5,134.5 451.5,134.5C 451.5,127.5 451.5,120.5 451.5,113.5 Z"/></g>
<g><path style="opacity:1" fill="#82eaa2" d="M 205.5,129.5 C 213.65,128.507 221.983,128.174 230.5,128.5C 231.232,135.476 231.565,142.476 231.5,149.5C 224.167,149.5 216.833,149.5 209.5,149.5C 208.271,142.688 206.938,136.021 205.5,129.5 Z"/></g>
<g><path style="opacity:1" fill="#85efa5" d="M 267.5,145.5 C 266.596,146.209 266.263,147.209 266.5,148.5C 259.833,148.5 253.167,148.5 246.5,148.5C 246.287,141.826 245.954,135.159 245.5,128.5C 253.167,128.5 260.833,128.5 268.5,128.5C 267.78,134.138 267.447,139.804 267.5,145.5 Z"/></g>
<g><path style="opacity:1" fill="#82eaa2" d="M 283.5,128.5 C 291.5,128.5 299.5,128.5 307.5,128.5C 306.008,135.469 304.675,142.469 303.5,149.5C 296.5,149.5 289.5,149.5 282.5,149.5C 282.24,142.443 282.573,135.443 283.5,128.5 Z"/></g>
<g><path style="opacity:1" fill="#385e91" d="M 437.5,113.5 C 437.5,120.5 437.5,127.5 437.5,134.5C 430.5,134.5 423.5,134.5 416.5,134.5C 422.979,133.509 429.646,133.176 436.5,133.5C 436.176,126.646 436.509,119.979 437.5,113.5 Z"/></g>
<g><path style="opacity:1" fill="#5eaa75" d="M 267.5,145.5 C 267.5,146.833 267.5,148.167 267.5,149.5C 260.313,149.825 253.313,149.491 246.5,148.5C 253.167,148.5 259.833,148.5 266.5,148.5C 266.263,147.209 266.596,146.209 267.5,145.5 Z"/></g>
<g><path style="opacity:1" fill="#2e4d7b" d="M 472.5,148.5 C 468.03,149.486 463.363,149.819 458.5,149.5C 456.5,149.5 454.5,149.5 452.5,149.5C 452.824,156.354 452.491,163.021 451.5,169.5C 451.5,162.5 451.5,155.5 451.5,148.5C 458.5,148.5 465.5,148.5 472.5,148.5 Z"/></g>
<g><path style="opacity:1" fill="#25422e" d="M 265.5,164.5 C 259.833,164.5 254.167,164.5 248.5,164.5C 248.5,167.167 248.5,169.833 248.5,172.5C 247.523,169.713 247.19,166.713 247.5,163.5C 253.69,163.177 259.69,163.51 265.5,164.5 Z"/></g>
<g><path style="opacity:1" fill="#83eda4" d="M 233.5,175.5 C 233.5,178.5 233.5,181.5 233.5,184.5C 227.833,184.5 222.167,184.5 216.5,184.5C 214.933,178.336 213.599,172.002 212.5,165.5C 219.468,164.503 226.468,164.17 233.5,164.5C 233.5,168.167 233.5,171.833 233.5,175.5 Z"/></g>
<g><path style="opacity:1" fill="#83eca3" d="M 265.5,164.5 C 265.106,171.496 264.773,178.496 264.5,185.5C 259.5,185.5 254.5,185.5 249.5,185.5C 249.261,181.158 248.927,176.824 248.5,172.5C 248.5,169.833 248.5,167.167 248.5,164.5C 254.167,164.5 259.833,164.5 265.5,164.5 Z"/></g>
<g><path style="opacity:1" fill="#81e8a1" d="M 280.5,164.5 C 287.167,164.5 293.833,164.5 300.5,164.5C 299.4,171.166 298.234,177.833 297,184.5C 291.259,185.475 285.425,185.808 279.5,185.5C 279.502,178.48 279.835,171.48 280.5,164.5 Z"/></g>
<g><path style="opacity:1" fill="#5aa270" d="M 233.5,175.5 C 234.479,178.625 234.813,181.958 234.5,185.5C 228.31,185.823 222.31,185.49 216.5,184.5C 222.167,184.5 227.833,184.5 233.5,184.5C 233.5,181.5 233.5,178.5 233.5,175.5 Z"/></g>
<g><path style="opacity:1" fill="#020305" d="M 45.5,259.5 C 61.8367,259.333 78.1701,259.5 94.5,260C 102.073,264.187 102.406,268.854 95.5,274C 78.8333,274.667 62.1667,274.667 45.5,274C 42.6339,272.607 41.3006,270.274 41.5,267C 41.6032,265.439 41.9366,263.939 42.5,262.5C 43.7701,261.712 44.7701,260.712 45.5,259.5 Z"/></g>
<g><path style="opacity:1" fill="#000102" d="M 45.5,293.5 C 74.8352,293.333 104.169,293.5 133.5,294C 138.626,296.553 139.793,300.386 137,305.5C 136.097,306.701 134.931,307.535 133.5,308C 104.167,308.667 74.8333,308.667 45.5,308C 40.2246,303.122 40.2246,298.289 45.5,293.5 Z"/></g>
<g><path style="opacity:1" fill="#d9e6ee" d="M 406.5,335.5 C 414.167,335.5 421.833,335.5 429.5,335.5C 430.091,338.614 431.758,341.114 434.5,343C 442.159,343.5 449.826,343.666 457.5,343.5C 455.316,350.517 450.649,355.017 443.5,357C 300.5,357.5 157.5,357.667 14.5,357.5C 14.5,352.833 14.5,348.167 14.5,343.5C 143.5,343.667 272.5,343.5 401.5,343C 405.007,341.67 406.673,339.17 406.5,335.5 Z"/></g>
<g><path style="opacity:1" fill="#bed2e1" d="M 457.5,343.5 C 470.5,343.5 483.5,343.5 496.5,343.5C 496.667,357.837 496.5,372.171 496,386.5C 494.412,391.052 491.245,393.885 486.5,395C 332.5,395.667 178.5,395.667 24.5,395C 19.7938,393.895 16.6271,391.062 15,386.5C 14.5002,376.839 14.3335,367.172 14.5,357.5C 157.5,357.667 300.5,357.5 443.5,357C 450.649,355.017 455.316,350.517 457.5,343.5 Z"/></g>
<g><path style="opacity:1" fill="#d9e6ee" d="M 206.5,410.5 C 230.5,410.5 254.5,410.5 278.5,410.5C 278.5,429.833 278.5,449.167 278.5,468.5C 254.5,468.5 230.5,468.5 206.5,468.5C 206.5,449.167 206.5,429.833 206.5,410.5 Z"/></g>
<g><path style="opacity:1" fill="#bbcedc" d="M 206.5,410.5 C 238.329,409.502 270.329,409.168 302.5,409.5C 302.5,429.167 302.5,448.833 302.5,468.5C 294.5,468.5 286.5,468.5 278.5,468.5C 278.5,449.167 278.5,429.833 278.5,410.5C 254.5,410.5 230.5,410.5 206.5,410.5 Z"/></g>
</svg>